<?xml version="1.0" encoding="utf-8"?>
<!-- Generator: Adobe Illustrator 26.0.1, SVG Export Plug-In . SVG Version: 6.00 Build 0)  -->
<svg version="1.1" id="Layer_1" xmlns="http://www.w3.org/2000/svg" xmlns:xlink="http://www.w3.org/1999/xlink" x="0px" y="0px"
	 viewBox="0 0 183.19 183.19" style="enable-background:new 0 0 183.19 183.19;" xml:space="preserve">
<style type="text/css">
	.st0{fill:#4D4D4D;}
</style>
<g>
	<path class="st0" d="M100.49,43.66c-10.15,0-19.33,14.02-26.1,27.79c-8.46,17.16-13.53,36.73-13.53,45.91
		c0,9.67,4.11,13.77,10.39,13.77c6.52,0,14.26-6.28,20.78-18.12c9.42-16.67,17.4-43.5,17.4-57.99
		C109.43,48.49,105.8,43.66,100.49,43.66z"/>
	<path class="st0" d="M91.6,0C41.01,0,0,41.01,0,91.6c0,50.59,41.01,91.6,91.6,91.6s91.6-41.01,91.6-91.6
		C183.19,41.01,142.18,0,91.6,0z M108.7,148.53c-8.94,0-15.22-5.07-15.22-15.46c0-3.38,0.48-6.77,3.38-16.67
		c-13.53,22.96-24.89,31.9-39.63,31.9c-15.71,0-26.1-12.32-26.1-30.69c0-19.33,8.7-39.63,21.02-55.82
		C64.97,44.87,81.4,33.51,97.1,33.51c10.39,0,15.71,5.07,17.88,17.4h0.24l4.11-14.26l26.82-1.69l-18.12,60.65
		c-5.8,19.09-7.25,26.1-7.25,32.14c0,2.17,0.97,3.62,2.9,3.62c3.87,0,7.73-3.62,17.64-16.92l5.08,3.62
		C132.38,140.8,120.06,148.53,108.7,148.53z"/>
</g>
</svg>
